/* XPM */
static char *bottom[]={
"10 10 29 1",
". c None",
"d c #000000",
"h c #020202",
"y c #050505",
"k c #070707",
"v c #0d0d0d",
"n c #111111",
"s c #171617",
"p c #212021",
"c c #323132",
"g c #474647",
"x c #595859",
"j c #5d5b5d",
"u c #696869",
"m c #727172",
"r c #797779",
"# c #8a888a",
"o c #8b898b",
"e c #939193",
"b c #9e9b9e",
"a c #9f9d9f",
"A c #a6a4a6",
"z c #adabad",
"f c #aeabae",
"w c #b7b4b7",
"i c #bab7ba",
"t c #bdbabd",
"l c #c1bec1",
"q c #c3c0c3",
"d.......#.",
"d.....bcd.",
"d...fghdd.",
"d.ijkdddd.",
"dmndddddd.",
"dopdddddd.",
"d.qrsdddd.",
"d...tuvdd.",
"d.....wxy.",
"d.......z."};
