/* XPM */
static char * nocert_xpm[] = {
"16 16 17 1",
" 	c None",
".	c #FE0706",
"+	c #FA463F",
"@	c #F9786F",
"#	c #F29688",
"$	c #D0CAA2",
"%	c #DEDC9D",
"&	c #EAD5C7",
"*	c #FA3832",
"=	c #F7F69D",
"-	c #E4DCDA",
";	c #FA271F",
">	c #F7E9E9",
",	c #FEBD89",
"'	c #F25B51",
")	c #FCFCFC",
"!	c #FE1A11",
")))))&@'+'#>))))",
"))))'.*'''!.#)))",
"))>*!,%%$$%#.'))",
"))'!%$==%=%%,.#)",
")&.,%==$=$=%+.!)",
")@;=$=$===@!;,.,",
")++=%=%=='.@$=!@",
")+'%%==#!;,%%$*@",
")+@$=$'.@==%=-*@",
")@;)#!;#$$%%$>.,",
")>.*.'$%%%$>)@!)",
"))@.#%=%$$=-,.#)",
")))+.@%=$%%'.@))",
"))))@..+**.!#)))",
"))))$$@'''@%$)))",
")))))->--->>))))"};
