/* XPM */
static char * nocert_xpm[] = {
"16 16 17 1",
" 	c None",
".	c #FB0A09",
"+	c #FE4E43",
"@	c #F77202",
"#	c #FDFAFA",
"$	c #FA9D02",
"%	c #F8BEB9",
"&	c #DAD00B",
"*	c #E1DE08",
"=	c #ECE606",
"-	c #F9A1A1",
";	c #DEDEA6",
">	c #E9E5D7",
",	c #FB241A",
"'	c #F37362",
")	c #D7D16A",
"!	c #FAF902",
"####%+....+%####",
"###+,'&!!!$,+###",
"#>,'*!*&*&=!@,##",
"#+')!*!!*!!*!.+#",
"%,#=*!=*!&!&,@,%",
"+-;!*!*!!!@.$*-+",
",>;!&!*!!++=&=>.",
".##**!!$,@!==)#.",
".##;!*$,&!==!>#.",
".###)+,&&*==;##.",
"+-#%,'*!!!*>##-+",
"%,',%>!!!!!>##,%",
"#+,##)!!!!!)#'+#",
"##,'#=!!!!!!',##",
"###+,$====$,,>##",
"####%+....+%####"};
