/* XPM */
static char *right[]={
"10 10 30 1",
"a c None",
"g c #000000",
"v c #030303",
"d c #040404",
"s c #090909",
"h c #0c0c0c",
"p c #141314",
"k c #161516",
"n c #201f20",
"y c #363536",
"w c #4c4a4c",
"e c #585758",
"t c #616061",
"i c #686668",
"q c #777577",
"l c #787678",
"o c #898789",
"B c #8e8c8e",
"c c #9d9b9d",
"z c #a19fa1",
"A c #aba9ab",
"# c #adaaad",
"x c #b0aeb0",
"r c #b2afb2",
". c #b3b0b3",
"b c #b5b2b5",
"f c #b7b4b7",
"u c #bcb9bc",
"j c #bcbabc",
"m c #c2bfc2",
".#aaaaaaaa",
"cdefaaaaaa",
"cgghijaaaa",
"cggggklmaa",
"cggggggnoa",
"cggggggpqr",
"cggggstuaa",
"cggvwxaaaa",
"cgyzaaaaaa",
"ABaaaaaaaa"};
